<svg fill="none" height="220" viewBox="0 0 220 220" width="220" xmlns="http://www.w3.org/2000/svg" xmlns:xlink="http://www.w3.org/1999/xlink"><clipPath id="a"><path d="m0 0h220v220h-220z"/></clipPath><g clip-path="url(#a)"><path d="m191.03 186.321c4.629 0 8.381-3.752 8.381-8.381 0-4.63-3.752-8.382-8.381-8.382-4.63 0-8.382 3.752-8.382 8.382 0 4.629 3.752 8.381 8.382 8.381z" fill="#20505b"/><path d="m59.9136 95.2801 98.2384 32.9449c-9.096 27.127-38.46 41.742-65.5932 32.643-27.1275-9.096-41.7419-38.461-32.6452-65.5879z" fill="#20505b"/><path d="m109.535 148.889c20.271 0 36.704-16.433 36.704-36.704 0-20.2713-16.433-36.7042-36.704-36.7042-20.2709 0-36.7038 16.4329-36.7038 36.7042 0 20.271 16.4329 36.704 36.7038 36.704z" fill="#154047"/><path d="m109.535 132.282c11.099 0 20.097-8.998 20.097-20.097 0-11.1-8.998-20.0974-20.097-20.0974-11.0993 0-20.0971 8.9974-20.0971 20.0974 0 11.099 8.9978 20.097 20.0971 20.097z" fill="#092a2d"/><path d="m160.714 108.263-90.8096-30.457c13.3453-15.3703 35.1046-22.0521 55.5986-15.177 20.5 6.877 33.837 25.3234 35.211 45.634z" fill="#20505b"/><path d="m158.153 128.225 19.462 6.524c-12.704 37.874-53.705 58.28-91.5806 45.582-37.8754-12.699-58.2768-53.698-45.5838-91.5754l19.4626 6.5245c-9.0967 27.1279 5.5182 56.4919 32.6457 65.5879 27.1321 9.099 56.4971-5.516 65.5941-32.643z" fill="#fcbc1d"/><path d="m215.801 141.197c1.619.785 1.998 2.359 1.561 3.668-.481 1.44-1.955 2.561-3.839 1.926l-35.908-12.041-19.462-6.525-98.2392-32.9444-19.4625-6.5245.0019-.0054-35.90816-12.0422c-3.589388-1.1986-2.16054-6.5748 1.55212-5.8362 8.69884 1.7261 17.52144 1.2144 25.74254-1.3007 8.2299-2.5061 15.8564-7.0096 22.1516-13.2536 20.2974-20.1238 50.9297-28.3271 79.8747-18.6175 28.947 9.7042 48.443 34.717 52.502 63.0125 2.515 17.551 13.469 32.757 29.433 40.484zm-145.8965-63.391 90.8095 30.457c-1.374-20.3105-14.711-38.7569-35.21-45.634-20.495-6.875-42.2547-.1933-55.5995 15.177z" fill="#eac16e"/><path d="m109.029 194.37c-8.745 0-17.5736-1.392-26.1699-4.263l-.0995-.033c-9.6761-3.244-18.546-8.171-26.3559-14.64-1.0482-.869-1.1947-2.423-.3259-3.471.8682-1.048 2.4223-1.195 3.471-.326 7.341 6.081 15.6799 10.712 24.7851 13.764l.0803.027c29.5418 9.866 62.0228 1.168 82.7558-22.157.905-1.017 2.462-1.109 3.481-.205 1.017.905 1.109 2.463.204 3.481-16.012 18.014-38.618 27.823-61.826 27.823zm-60.0413-27.094c-.6838 0-1.3637-.282-1.8509-.836-15.7957-17.937-23.0997-41.742-20.0389-65.309.175-1.3503 1.4141-2.3014 2.7625-2.1274 1.35.1755 2.3026 1.4124 2.1271 2.7624-2.878 22.16 3.9922 44.545 18.8492 61.417.8998 1.021.8012 2.579-.2209 3.479-.4679.412-1.0492.614-1.6281.614zm126.9233-8.878c-.467 0-.939-.132-1.357-.409-1.136-.751-1.448-2.28-.697-3.416 1.673-2.532 3.213-5.192 4.577-7.906.611-1.216 2.093-1.707 3.309-1.096 1.217.611 1.707 2.093 1.096 3.309-1.45 2.888-3.089 5.718-4.869 8.412-.475.717-1.259 1.106-2.059 1.106zm33.954-27.817c-.56 0-1.122-.189-1.585-.578-9.027-7.586-14.929-18.258-16.619-30.0508-.193-1.348.743-2.5969 2.091-2.7901 1.35-.1938 2.596.7435 2.789 2.0905 1.518 10.5914 6.813 20.1714 14.911 26.9754 1.042.875 1.177 2.431.301 3.473-.487.581-1.185.88-1.888.88zm-18.511-40.9823c-1.061 0-2.041-.6903-2.361-1.7587-3.185-10.6355-8.368-20.3895-15.404-28.9912-5.236-6.4017-11.382-11.9712-18.266-16.5526-1.134-.7544-1.441-2.2848-.686-3.4183.753-1.133 2.282-1.4412 3.418-.6868 7.293 4.8535 13.803 10.7538 19.35 17.5357 7.45 9.1076 12.938 19.436 16.312 30.6982.39 1.3041-.351 2.6782-1.655 3.0687-.236.0715-.474.105-.708.105zm-161.8017-25.0325c-1.0566 0-2.0338-.6849-2.3573-1.7479-.3964-1.3026.3378-2.6802 1.6404-3.0766 3.3389-1.0167 6.5674-2.4509 9.5947-4.2624 1.169-.6991 2.6822-.3185 3.3813.8495.6992 1.1681.3185 2.6822-.8495 3.3813-3.3715 2.0176-6.9682 3.6151-10.6903 4.7481-.2396.073-.4817.108-.7193.108zm18.9365-11.3303c-.6346 0-1.2686-.2435-1.7508-.7292-.9585-.9668-.9521-2.5278.0148-3.4863 11.4569-11.3589 25.8105-19.3768 41.5087-23.1866 16.1085-3.9099 32.9695-3.1885 48.7605 2.0851l.113.038c2.837.9511 5.656 2.0575 8.376 3.2876 1.241.5611 1.791 2.0215 1.23 3.262-.56 1.2405-2.02 1.7927-3.262 1.2307-2.569-1.1617-5.231-2.2069-7.913-3.1057l-.101-.0336c-14.915-4.9817-30.834-5.6631-46.0409-1.9722-14.8255 3.5983-28.3808 11.17-39.1998 21.8968-.4807.4753-1.1084.7134-1.7355.7134z" fill="#333"/><path d="m108.97 186.554c-7.867 0-15.8603-1.251-23.7195-3.886-38.3163-12.846-59.3906-53.905-47.8809-92.3519l-33.60863-11.2701c-2.828615-.9451-4.327481-3.7264-3.561778-6.6132.76669-2.8883 3.449858-4.5612 6.378558-3.9784 8.12795 1.6127 16.61475 1.1833 24.53995-1.2405 7.9179-2.411 15.2259-6.7839 21.137-12.6467 10.4462-10.3565 23.5337-17.6674 37.8488-21.1414 14.7165-3.5717 30.1205-2.9021 44.5455 1.9377 14.427 4.8363 27.121 13.5889 36.708 25.3106 9.327 11.4032 15.361 25.1272 17.451 39.6879 2.414 16.842 12.906 31.278 28.067 38.616 2.56 1.241 3.722 3.983 2.825 6.667-.474 1.42-1.487 2.603-2.78 3.246-1.272.633-2.758.717-4.185.235l-15.622-5.238c-1.291-.433-1.986-1.83-1.553-3.122.433-1.291 1.831-1.985 3.121-1.553l15.625 5.24c.279.094.384.04.418.023.123-.061.24-.215.299-.392.151-.452-.12-.583-.299-.669-16.637-8.053-28.151-23.886-30.797-42.353-1.962-13.6716-7.628-26.5579-16.386-37.2659-8.999-11.0014-20.914-19.2171-34.459-23.7581-13.544-4.5434-28.004-5.173-41.8154-1.8208-13.4424 3.2625-25.7321 10.1272-35.5403 19.8511-6.4782 6.4254-14.4902 11.2188-23.1694 13.8616-8.6983 2.6605-18.0144 3.1318-26.94059 1.3608-.19475-.039-.51671-.1026-.65181.4072-.1346.5074.17553.6109.36091.6726l35.91019 12.0422c1.2651.4245 1.9628 1.7784 1.5743 3.0554-.0064.0217-.0153.0493-.0227.071-12.2414 36.5299 7.5101 76.2109 44.0297 88.4549 36.5261 12.247 76.2081-7.505 88.4601-44.029.433-1.291 1.832-1.985 3.121-1.553l5.995 2.011c1.291.433 1.986 1.83 1.553 3.121-.433 1.292-1.83 1.986-3.121 1.554l-3.696-1.24c-11.121 29.893-39.67 48.695-70.159 48.696z" fill="#333"/><path d="m109.086 166.05c-5.809 0-11.6414-.943-17.311-2.845-13.7442-4.609-24.8708-14.294-31.3297-27.271s-7.4781-27.693-2.8691-41.4379c.4329-1.2908 1.8307-1.986 3.1215-1.5536 1.2908.4329 1.9865 1.8302 1.5536 3.1215-8.6495 25.795 5.2983 53.817 31.0921 62.467 12.4976 4.191 25.8786 3.265 37.6776-2.607s20.604-15.988 24.795-28.483c.432-1.291 1.83-1.986 3.121-1.554 1.29.433 1.986 1.83 1.553 3.122-4.609 13.744-14.294 24.87-27.272 31.329-7.626 3.795-15.855 5.712-24.132 5.712z" fill="#333"/><path d="m160.714 110.728c-.264 0-.528-.042-.784-.128l-90.8095-30.4565c-.78-.2618-1.3781-.8953-1.5945-1.6891-.216-.7938-.0222-1.6434.5172-2.2646 14.4749-16.6714 37.3378-22.912 58.2438-15.8983 13.297 4.4606 24.215 13.7486 30.744 26.1537.634 1.2045.172 2.6955-1.033 3.3295-1.205.6341-2.696.1716-3.331-1.0334-5.935-11.277-15.86-19.7204-27.948-23.7757-17.82-5.9783-37.198-1.3658-50.3949 11.7222l83.5339 28.0162c-.41-2.831-1.067-5.6294-1.964-8.3564-.425-1.2933.278-2.6867 1.572-3.1121 1.293-.4265 2.686.278 3.112 1.5713 1.417 4.3082 2.291 8.7792 2.595 13.2882.056.821-.301 1.616-.953 2.118-.438.339-.969.515-1.506.515z" fill="#333"/><path d="m177.616 137.215c-.26 0-.525-.042-.784-.129l-44.191-14.817c-1.291-.433-1.986-1.83-1.553-3.121s1.831-1.986 3.121-1.554l44.189 14.817c1.291.433 1.987 1.83 1.554 3.121-.345 1.032-1.306 1.683-2.336 1.683z" fill="#333"/><path d="m122.069 118.589c-.259 0-.524-.041-.784-.128l-89.9424-30.1605c-1.2908-.4329-1.9865-1.8302-1.5531-3.121.4329-1.2908 1.8311-1.9864 3.121-1.5531l89.9425 30.1606c1.291.433 1.986 1.83 1.553 3.121-.346 1.031-1.306 1.681-2.337 1.681z" fill="#333"/><path d="m25.8586 29.8857c-1.3614 0-2.4653-1.104-2.4653-2.4653v-10.5675c0-1.3613 1.1039-2.4652 2.4653-2.4652 1.3613 0 2.4652 1.1039 2.4652 2.4652v10.568c0 1.3608-1.1039 2.4648-2.4652 2.4648z" fill="#fcbc1d"/><path d="m31.1424 24.6016h-10.568c-1.3613 0-2.4652-1.1039-2.4652-2.4652s1.1039-2.4653 2.4652-2.4653h10.5675c1.3613 0 2.4653 1.104 2.4653 2.4653s-1.1035 2.4652-2.4648 2.4652z" fill="#fcbc1d"/><path d="m158.488 205.612c-1.361 0-2.465-1.104-2.465-2.465v-10.567c0-1.362 1.104-2.466 2.465-2.466 1.362 0 2.466 1.104 2.466 2.466v10.567c0 1.362-1.104 2.465-2.466 2.465z" fill="#fcbc1d"/><path d="m163.772 200.329h-10.568c-1.361 0-2.465-1.104-2.465-2.465 0-1.362 1.104-2.466 2.465-2.466h10.568c1.362 0 2.466 1.104 2.466 2.466 0 1.361-1.104 2.465-2.466 2.465z" fill="#fcbc1d"/><g fill="#fff"><path d="m186.567 130.161c-.261 0-.526-.042-.783-.128l-20.038-6.72c-1.291-.433-1.986-1.83-1.553-3.121.433-1.29 1.831-1.986 3.121-1.553l13.83 4.638c-2.454-4.756-4.316-9.799-5.556-15.058-.312-1.326.51-2.653 1.835-2.965 1.328-.313 2.653.509 2.965 1.834 1.622 6.884 4.395 13.364 8.244 19.261.574.879.528 2.024-.114 2.855-.476.615-1.202.957-1.951.957z"/><path d="m176.253 100.608c-1.149 0-2.178-.8076-2.414-1.9776-2.301-11.3949-7.545-21.9855-15.165-30.6257-7.644-8.6673-17.541-15.2125-28.622-18.9281l-.076-.0252c-16.034-5.3554-33.2473-4.4497-48.4726 2.5491-1.2371.568-2.7009.0266-3.2694-1.2104-.5685-1.2371-.0266-2.701 1.2104-3.2694 16.3677-7.524 34.8666-8.4992 52.0906-2.7468l.079.0261c11.907 3.9932 22.541 11.0275 30.758 20.3437 8.192 9.2885 13.828 20.6686 16.301 32.9109.269 1.3347-.594 2.6344-1.929 2.9044-.165.033-.33.049-.491.049z"/><path d="m47.0421 75.8624c-.8628 0-1.7005-.4536-2.1526-1.2602-.6661-1.1878-.2431-2.6901.9447-3.3562 4.7909-2.6861 9.2091-6.0201 13.1323-9.9088 3.5115-3.4814 7.3785-6.6009 11.4935-9.2708 1.1428-.7405 2.6693-.4161 3.4099.7263.741 1.1419.4161 2.6688-.7263 3.4099-3.832 2.4864-7.4342 5.3925-10.706 8.6367-4.2388 4.2013-9.0134 7.804-14.1924 10.708-.3807.2135-.7948.3151-1.2031.3151z"/><path d="m60.0596 87.7375c-.2598 0-.5241-.0414-.784-.1287l-22.5017-7.5456c-1.2908-.4329-1.9865-1.8302-1.5536-3.1215.4329-1.2908 1.8297-1.986 3.1215-1.5536l22.5012 7.5456c1.2908.4329 1.9865 1.8302 1.5536 3.121-.3451 1.0315-1.3065 1.6828-2.337 1.6828z"/><path d="m74.5231 92.5876c-.2598 0-.5241-.0414-.7839-.1287l-6.4284-2.1556c-1.2908-.4329-1.9865-1.8302-1.5536-3.1215.4329-1.2908 1.8302-1.9865 3.1215-1.5536l6.4284 2.1556c1.2908.4329 1.9865 1.8302 1.5536 3.1215-.3461 1.0315-1.3071 1.6823-2.3376 1.6823z"/><path d="m153.271 118.996c-.259 0-.524-.042-.784-.129l-69.1062-23.1742c-1.2908-.4329-1.9864-1.8302-1.5535-3.1215.4328-1.2908 1.8301-1.9865 3.1214-1.5536l69.1063 23.1743c1.291.433 1.986 1.83 1.553 3.121-.346 1.031-1.306 1.683-2.337 1.683z"/><path d="m63.1914 154.958c-.6814 0-1.3593-.28-1.8465-.831-12.1571-13.725-17.8656-31.977-15.6612-50.075.1647-1.352 1.3949-2.312 2.7453-2.149 1.3515.164 2.3139 1.394 2.1492 2.745-2.0338 16.698 3.2359 33.541 14.4572 46.21.9028 1.02.8086 2.578-.2105 3.48-.4689.416-1.0532.62-1.6335.62z"/><path d="m75.1691 165.374c-.4674 0-.9403-.132-1.3589-.41-1.1557-.765-2.2995-1.578-3.3995-2.416-1.0833-.825-1.2928-2.371-.4674-3.455.8248-1.083 2.372-1.292 3.4547-.467 1.0142.772 2.0689 1.521 3.1348 2.228 1.135.751 1.4461 2.281.6942 3.416-.4743.716-1.2587 1.104-2.0579 1.104z"/><path d="m109.032 175.566c-6.762 0-13.5793-1.079-20.2083-3.293l-.0691-.023c-1.8223-.611-3.6263-1.307-5.3712-2.071-1.2469-.546-1.8154-2-1.2691-3.247.5468-1.247 2.0008-1.815 3.2472-1.269 1.6108.706 3.2768 1.348 4.9517 1.91l.0705.023c20.7203 6.919 43.4553 1.823 59.3333-13.303.987-.939 2.546-.901 3.485.085s.901 2.546-.084 3.485c-12.124 11.55-27.943 17.703-44.086 17.703z"/><path d="m158.59 150.373c-.504 0-1.014-.155-1.453-.475-1.099-.804-1.339-2.346-.536-3.445 1.39-1.902 2.677-3.907 3.825-5.961.664-1.189 2.164-1.614 3.355-.949 1.188.664 1.613 2.166.949 3.354-1.245 2.228-2.64 4.404-4.147 6.465-.483.66-1.233 1.011-1.993 1.011z"/></g><path d="m190.631 141.609c-.163 0-.321-.015-.484-.045-.157-.034-.31-.083-.458-.142-.149-.065-.291-.139-.429-.227-.134-.089-.257-.193-.375-.306-.459-.459-.72-1.095-.72-1.745 0-.158.015-.321.05-.479.029-.157.078-.315.138-.463.064-.148.137-.291.226-.424.089-.138.193-.261.306-.375.118-.113.241-.217.375-.306.138-.093.28-.167.429-.226.148-.064.3-.114.458-.143.321-.064.646-.064.967 0 .157.029.31.079.458.143.149.059.292.133.429.226.134.089.262.193.375.306.113.114.217.237.306.375.089.133.162.276.226.424.06.148.109.306.138.463.035.158.05.321.05.479 0 .65-.261 1.286-.72 1.745-.464.459-1.1.72-1.745.72z" fill="#333"/><path d="m190.444 131.457c-.259 0-.522-.041-.781-.128l-3.877-1.295c-1.291-.431-1.988-1.828-1.557-3.119.432-1.292 1.83-1.987 3.119-1.558l3.877 1.295c1.291.431 1.988 1.828 1.557 3.119-.345 1.033-1.306 1.686-2.338 1.686z" fill="#fff"/><path d="m36.5956 79.9009c-.2589 0-.5222-.0409-.781-.1276l-3.8764-1.2948c-1.2913-.4314-1.9884-1.8282-1.5575-3.1195.4319-1.2913 1.8287-1.9875 3.1195-1.5575l3.8763 1.2947c1.2913.4314 1.9885 1.8282 1.5576 3.1195-.3456 1.0325-1.3071 1.6852-2.3385 1.6852z" fill="#fff"/><path d="m191.03 188.787c-5.982 0-10.847-4.866-10.847-10.847 0-5.982 4.865-10.847 10.847-10.847 5.981 0 10.847 4.865 10.847 10.847 0 5.981-4.866 10.847-10.847 10.847zm0-16.764c-3.263 0-5.917 2.654-5.917 5.917 0 3.262 2.654 5.916 5.917 5.916 3.262 0 5.916-2.654 5.916-5.916 0-3.263-2.654-5.917-5.916-5.917z" fill="#333"/></g></svg>